<svg width="19" height="16" viewBox="0 0 19 16" fill="none" xmlns="http://www.w3.org/2000/svg">
<path d="M16.6131 8.25233V7.125C16.6131 5.23534 15.8625 3.42306 14.5263 2.08687C13.1901 0.750669 11.3779 0 9.48815 0C7.59849 0 5.78621 0.750669 4.45004 2.08687C3.11384 3.42306 2.36317 5.23534 2.36317 7.125V8.25233C1.53284 8.61792 0.853306 9.2577 0.43833 10.0645C0.0233548 10.8713 -0.101873 11.7961 0.0836123 12.6843C0.269097 13.5724 0.754036 14.3698 1.45724 14.9431C2.16045 15.5163 3.03925 15.8306 3.94651 15.8333H5.52981V7.91667H3.94651V7.125C3.94651 5.65524 4.53035 4.24571 5.56961 3.20645C6.60891 2.16719 8.01844 1.58333 9.48815 1.58333C10.9579 1.58333 12.3674 2.16719 13.4067 3.20645C14.446 4.24571 15.0298 5.65524 15.0298 7.125V7.91667H13.4465V14.25H10.2798V15.8333H15.0298C15.9371 15.8306 16.8159 15.5163 17.5191 14.9431C18.2223 14.3698 18.7073 13.5724 18.8927 12.6843C19.0782 11.7961 18.953 10.8713 18.538 10.0645C18.123 9.2577 17.4435 8.61792 16.6131 8.25233ZM3.94651 14.25C3.31661 14.25 2.71252 13.9998 2.26713 13.5544C1.82173 13.109 1.57151 12.5049 1.57151 11.875C1.57151 11.2451 1.82173 10.641 2.26713 10.1956C2.71252 9.75022 3.31661 9.5 3.94651 9.5V14.25ZM15.0298 14.25V9.5C15.6597 9.5 16.2638 9.75022 16.7092 10.1956C17.1546 10.641 17.4048 11.2451 17.4048 11.875C17.4048 12.5049 17.1546 13.109 16.7092 13.5544C16.2638 13.9998 15.6597 14.25 15.0298 14.25Z" fill="#8A8A8A"/>
</svg>
