<svg width="22" height="22" viewBox="0 0 22 22" fill="none" xmlns="http://www.w3.org/2000/svg">
<ellipse cx="8.24674" cy="6.41667" rx="3.66667" ry="3.66667" stroke="#6A717F" stroke-width="1.65" stroke-linecap="round" stroke-linejoin="round"/>
<ellipse cx="8.24674" cy="6.41667" rx="3.66667" ry="3.66667" stroke="#6A717F" stroke-width="1.65" stroke-linecap="round" stroke-linejoin="round"/>
<path d="M2.75 19.25V17.4167C2.75 15.3916 4.39162 13.75 6.41667 13.75H10.0833C12.1084 13.75 13.75 15.3916 13.75 17.4167V19.25" stroke="#6A717F" stroke-width="1.65" stroke-linecap="round" stroke-linejoin="round"/>
<path d="M2.75 19.25V17.4167C2.75 15.3916 4.39162 13.75 6.41667 13.75H10.0833C12.1084 13.75 13.75 15.3916 13.75 17.4167V19.25" stroke="#6A717F" stroke-width="1.65" stroke-linecap="round" stroke-linejoin="round"/>
<path d="M14.6699 2.86816C16.2923 3.28357 17.4271 4.74549 17.4271 6.42025C17.4271 8.09501 16.2923 9.55693 14.6699 9.97233" stroke="#6A717F" stroke-width="1.65" stroke-linecap="round" stroke-linejoin="round"/>
<path d="M14.6699 2.86816C16.2923 3.28357 17.4271 4.74549 17.4271 6.42025C17.4271 8.09501 16.2923 9.55693 14.6699 9.97233" stroke="#6A717F" stroke-width="1.65" stroke-linecap="round" stroke-linejoin="round"/>
<path d="M19.25 19.2499V17.4166C19.2404 15.7525 18.1113 14.3035 16.5 13.8875" stroke="#6A717F" stroke-width="1.65" stroke-linecap="round" stroke-linejoin="round"/>
<path d="M19.25 19.2499V17.4166C19.2404 15.7525 18.1113 14.3035 16.5 13.8875" stroke="#6A717F" stroke-width="1.65" stroke-linecap="round" stroke-linejoin="round"/>
</svg>
