<svg width="19" height="19" viewBox="0 0 19 19" fill="none" xmlns="http://www.w3.org/2000/svg">
<path d="M5.5 15.4912C6.05728 15.4912 6.50879 15.9427 6.50879 16.5C6.50879 17.0573 6.05728 17.5088 5.5 17.5088C4.9481 17.5088 4.50098 17.0627 4.50098 16.5C4.50098 15.9373 4.9481 15.4912 5.5 15.4912ZM14.667 15.4912C15.2241 15.4914 15.6748 15.9428 15.6748 16.5C15.6748 17.0572 15.2241 17.5086 14.667 17.5088C14.1151 17.5088 13.668 17.0627 13.668 16.5C13.668 15.9373 14.1151 15.4912 14.667 15.4912ZM2.47168 0.825195L3.11816 2.1875L3.3418 2.6582H17.417C17.4412 2.65829 17.4643 2.66843 17.4814 2.68555C17.4985 2.70272 17.5088 2.72577 17.5088 2.75C17.5088 2.76761 17.5044 2.77749 17.5029 2.78027H17.502L17.4961 2.79199L14.2217 8.73535C14.0444 9.05134 13.7126 9.25865 13.3379 9.25879H6.02051L5.78516 9.68652L4.96484 11.1807C4.89607 11.305 4.85771 11.4341 4.84277 11.5596L4.83496 11.6875L4.84082 11.7959C4.89476 12.3286 5.34229 12.7412 5.88965 12.7412H15.6748V12.9248H5.5C4.94283 12.9248 4.49139 12.4741 4.49121 11.917C4.49121 11.745 4.53464 11.5829 4.61426 11.4307L5.85156 9.18457L6.05469 8.81445L5.87402 8.43262L2.5791 1.48047L2.35547 1.00879H0.825195V0.825195H2.47168Z" stroke="#6A717F" stroke-width="1.65"/>
</svg>
