<svg width="20" height="20" viewBox="0 0 20 20" fill="none" xmlns="http://www.w3.org/2000/svg">
<path d="M10.8327 12.2921H1.66602C1.32435 12.2921 1.04102 12.0087 1.04102 11.6671V6.3504C1.04102 6.08374 1.20767 5.85038 1.44934 5.75872C1.69934 5.66705 1.97436 5.74208 2.14102 5.94208C2.64936 6.55041 3.44102 6.89207 4.22435 6.86707C4.89102 6.8504 5.50767 6.60042 5.97433 6.15875C6.191 5.97542 6.36601 5.75874 6.49934 5.51707C6.75767 5.0754 6.88268 4.59206 6.87435 4.10039C6.85768 3.33373 6.52437 2.63373 5.9577 2.1254C5.7577 1.9504 5.69102 1.67538 5.78268 1.43372C5.87435 1.19205 6.10769 1.02539 6.36603 1.02539H12.4993C12.841 1.02539 13.1243 1.30872 13.1243 1.65039V9.98372C13.1243 11.2671 12.0993 12.2921 10.8327 12.2921ZM2.29102 11.0421H10.8327C11.4077 11.0421 11.8743 10.5754 11.8743 10.0004V2.29207H7.65768C7.94935 2.83374 8.10768 3.44209 8.12435 4.07542C8.14102 4.80042 7.95767 5.51707 7.591 6.14207C7.391 6.5004 7.11601 6.84208 6.81601 7.09208C6.14934 7.72541 5.23267 8.10041 4.25767 8.12541C3.55767 8.15041 2.88269 7.97541 2.29936 7.65874V11.0421H2.29102Z" fill="#888888"/>
<path d="M15.8327 17.291H14.9993C14.6577 17.291 14.3743 17.0077 14.3743 16.666C14.3743 16.091 13.9077 15.6243 13.3327 15.6243C12.7577 15.6243 12.291 16.091 12.291 16.666C12.291 17.0077 12.0077 17.291 11.666 17.291H8.33268C7.99102 17.291 7.70768 17.0077 7.70768 16.666C7.70768 16.091 7.24102 15.6243 6.66602 15.6243C6.09102 15.6243 5.62435 16.091 5.62435 16.666C5.62435 17.0077 5.34102 17.291 4.99935 17.291H4.16602C2.44102 17.291 1.04102 15.891 1.04102 14.166V11.666C1.04102 11.3243 1.32435 11.041 1.66602 11.041H10.8327C11.4077 11.041 11.8743 10.5743 11.8743 9.99935V4.16602C11.8743 3.82435 12.1577 3.54102 12.4993 3.54102H14.0327C14.8577 3.54102 15.616 3.98269 16.0243 4.69936L17.4494 7.19102C17.5577 7.38269 17.5577 7.62435 17.4494 7.81602C17.341 8.00769 17.1327 8.12435 16.9077 8.12435H15.8327C15.716 8.12435 15.6243 8.21602 15.6243 8.33268V10.8327C15.6243 10.9493 15.716 11.041 15.8327 11.041H18.3327C18.6743 11.041 18.9577 11.3243 18.9577 11.666V14.166C18.9577 15.891 17.5577 17.291 15.8327 17.291ZM15.541 16.041H15.8327C16.866 16.041 17.7077 15.1993 17.7077 14.166V12.291H15.8327C15.0327 12.291 14.3743 11.6327 14.3743 10.8327V8.33268C14.3743 7.53268 15.0243 6.87435 15.8327 6.87435L14.941 5.31602C14.7577 4.99102 14.4077 4.79102 14.0327 4.79102H13.1243V9.99935C13.1243 11.266 12.0993 12.291 10.8327 12.291H2.29102V14.166C2.29102 15.1993 3.13268 16.041 4.16602 16.041H4.45766C4.73266 15.0827 5.61602 14.3743 6.66602 14.3743C7.71602 14.3743 8.59937 15.0827 8.87437 16.041H11.1327C11.4077 15.0827 12.291 14.3743 13.341 14.3743C14.391 14.3743 15.266 15.0827 15.541 16.041Z" fill="#888888"/>
<path d="M6.66667 18.9583C5.4 18.9583 4.375 17.9333 4.375 16.6667C4.375 15.4 5.4 14.375 6.66667 14.375C7.93333 14.375 8.95833 15.4 8.95833 16.6667C8.95833 17.9333 7.93333 18.9583 6.66667 18.9583ZM6.66667 15.625C6.09167 15.625 5.625 16.0917 5.625 16.6667C5.625 17.2417 6.09167 17.7083 6.66667 17.7083C7.24167 17.7083 7.70833 17.2417 7.70833 16.6667C7.70833 16.0917 7.24167 15.625 6.66667 15.625Z" fill="#888888"/>
<path d="M13.3327 18.9583C12.066 18.9583 11.041 17.9333 11.041 16.6667C11.041 15.4 12.066 14.375 13.3327 14.375C14.5993 14.375 15.6243 15.4 15.6243 16.6667C15.6243 17.9333 14.5993 18.9583 13.3327 18.9583ZM13.3327 15.625C12.7577 15.625 12.291 16.0917 12.291 16.6667C12.291 17.2417 12.7577 17.7083 13.3327 17.7083C13.9077 17.7083 14.3743 17.2417 14.3743 16.6667C14.3743 16.0917 13.9077 15.625 13.3327 15.625Z" fill="#888888"/>
<path d="M18.3333 12.2917H15.8333C15.0333 12.2917 14.375 11.6333 14.375 10.8333V8.33333C14.375 7.53333 15.0333 6.875 15.8333 6.875H16.9083C17.1333 6.875 17.3417 6.99167 17.45 7.19167L18.875 9.69167C18.925 9.78334 18.9583 9.89167 18.9583 10V11.6667C18.9583 12.0083 18.675 12.2917 18.3333 12.2917ZM15.8333 8.125C15.7167 8.125 15.625 8.21667 15.625 8.33333V10.8333C15.625 10.95 15.7167 11.0417 15.8333 11.0417H17.7083V10.1667L16.5416 8.125H15.8333Z" fill="#888888"/>
<path d="M4.15801 8.12565C3.00801 8.12565 1.92468 7.62563 1.19135 6.75063C1.07468 6.62563 0.949696 6.45063 0.841363 6.28397C0.449696 5.6923 0.233029 4.99231 0.216363 4.25897C0.183029 3.04231 0.699706 1.90063 1.63304 1.12563C2.34137 0.542297 3.19133 0.225651 4.09133 0.208984C5.07467 0.217318 6.05804 0.54232 6.79137 1.20065C7.62471 1.93399 8.10803 2.959 8.13303 4.07566C8.1497 4.80066 7.96635 5.51731 7.59968 6.14231C7.39968 6.50065 7.12469 6.84233 6.82469 7.09233C6.15802 7.72566 5.24135 8.10065 4.26635 8.12565C4.22468 8.12565 4.19135 8.12565 4.15801 8.12565ZM4.15801 1.45898C4.14135 1.45898 4.12468 1.45898 4.10801 1.45898C3.49968 1.46732 2.91633 1.69233 2.42467 2.09233C1.79133 2.61733 1.44135 3.40066 1.45802 4.22566C1.47469 4.72566 1.61636 5.20067 1.88303 5.59234C1.95803 5.709 2.03301 5.8173 2.12468 5.9173C2.65801 6.55063 3.44969 6.88398 4.22469 6.86731C4.89136 6.85064 5.50801 6.60066 5.97467 6.159C6.19134 5.97566 6.36634 5.75898 6.49968 5.51731C6.75801 5.07565 6.88302 4.5923 6.87469 4.10064C6.85802 3.33397 6.52471 2.63397 5.95804 2.12564C5.45804 1.70064 4.82468 1.45898 4.15801 1.45898Z" fill="#888888"/>
<path d="M3.70807 5.62539C3.54973 5.62539 3.39972 5.56703 3.27472 5.45037L2.43304 4.6504C2.18304 4.40873 2.17475 4.01707 2.41641 3.76707C2.65808 3.51707 3.04974 3.50872 3.29974 3.75039L3.70807 4.14203L5.01641 2.8754C5.26641 2.63373 5.65807 2.64203 5.89974 2.89203C6.14141 3.14203 6.13306 3.53374 5.88306 3.77541L4.14137 5.45871C4.01637 5.56704 3.85807 5.62539 3.70807 5.62539Z" fill="#888888"/>
</svg>
