<svg width="21" height="21" viewBox="0 0 21 21" fill="none" xmlns="http://www.w3.org/2000/svg">
<path d="M10.5007 11.6382C10.3869 11.6382 10.2732 11.612 10.1682 11.5507L2.44193 7.07948C2.13568 6.89573 2.02193 6.49323 2.20568 6.17823C2.38943 5.86323 2.79193 5.75823 3.10693 5.94198L10.5007 10.2207L17.8507 5.96823C18.1657 5.78448 18.5682 5.89823 18.7519 6.20448C18.9357 6.51948 18.8219 6.92198 18.5157 7.10573L10.8419 11.5507C10.7282 11.6032 10.6144 11.6382 10.5007 11.6382Z" fill="#292D32"/>
<path d="M10.5 19.5652C10.1413 19.5652 9.84375 19.2677 9.84375 18.9089V10.9727C9.84375 10.6139 10.1413 10.3164 10.5 10.3164C10.8587 10.3164 11.1562 10.6139 11.1562 10.9727V18.9089C11.1562 19.2677 10.8587 19.5652 10.5 19.5652Z" fill="#292D32"/>
<path d="M10.5005 19.9062C9.73055 19.9062 8.9693 19.74 8.36555 19.4075L3.69305 16.8087C2.4243 16.1087 1.43555 14.42 1.43555 12.9675V8.02375C1.43555 6.57125 2.4243 4.89125 3.69305 4.1825L8.36555 1.5925C9.5643 0.9275 11.4368 0.9275 12.6355 1.5925L17.308 4.19125C18.5768 4.89125 19.5655 6.58 19.5655 8.0325V12.9762C19.5655 14.4287 18.5768 16.1087 17.308 16.8175L12.6355 19.4075C12.0318 19.74 11.2705 19.9062 10.5005 19.9062ZM10.5005 2.40625C9.9493 2.40625 9.4068 2.52 9.0043 2.73875L4.3318 5.3375C3.4918 5.80125 2.74805 7.06125 2.74805 8.02375V12.9675C2.74805 13.93 3.4918 15.19 4.3318 15.6625L9.0043 18.2613C9.80055 18.7075 11.2005 18.7075 11.9968 18.2613L16.6693 15.6625C17.5093 15.19 18.253 13.9387 18.253 12.9675V8.02375C18.253 7.06125 17.5093 5.80125 16.6693 5.32875L11.9968 2.73C11.5943 2.52 11.0518 2.40625 10.5005 2.40625Z" fill="#292D32"/>
</svg>
