<svg width="23" height="27" viewBox="0 0 23 27" fill="none" xmlns="http://www.w3.org/2000/svg">
<path d="M7.34082 23.4609H15.1797C15.216 23.4609 15.2516 23.4705 15.2832 23.4883C15.3148 23.5061 15.3416 23.5315 15.3604 23.5625C15.3791 23.5937 15.3896 23.6296 15.3906 23.666C15.3916 23.7024 15.3832 23.7384 15.3662 23.7705C14.9671 24.5123 14.3743 25.1321 13.6514 25.5645C12.9284 25.9968 12.1021 26.2259 11.2598 26.2266C10.4174 26.2258 9.59104 25.9968 8.86816 25.5645C8.14527 25.132 7.55241 24.5123 7.15332 23.7705C7.13636 23.7384 7.1279 23.7023 7.12891 23.666C7.12995 23.6296 7.14033 23.5937 7.15918 23.5625C7.17793 23.5315 7.20478 23.5061 7.23633 23.4883C7.25222 23.4794 7.26961 23.4723 7.28711 23.4678L7.34082 23.4609ZM11.2598 0.0234375C12.819 0.0235014 14.2041 1.15681 14.7109 2.85352L14.7334 2.84668L14.709 2.85449L14.7158 2.8623C14.7312 2.88025 14.7499 2.89574 14.7705 2.90723L14.7725 2.9082C16.1847 3.48924 17.2553 4.27473 18.0469 5.30957C19.1205 6.71067 19.667 8.58079 19.667 10.8623C19.667 13.0699 19.8613 14.4118 20.2188 15.3975C20.5764 16.3836 21.0968 17.0116 21.7412 17.791C21.8342 17.9032 21.9307 18.0222 22.0273 18.1387C22.2758 18.4387 22.4331 18.8038 22.4805 19.1904C22.5278 19.577 22.4636 19.9693 22.2949 20.3203C21.9363 21.07 21.1792 21.5371 20.3125 21.5371H2.21289C1.34218 21.5369 0.580047 21.0693 0.222656 20.3164C0.0547408 19.9655 -0.00857414 19.5736 0.0390625 19.1875C0.0808338 18.8496 0.206126 18.5277 0.40332 18.252L0.492188 18.1367C0.589368 18.0173 0.685513 17.9022 0.779297 17.7891C1.42407 17.0108 1.94334 16.3833 2.30078 15.3975C2.65811 14.4118 2.85352 13.0692 2.85352 10.8604C2.85352 8.85964 3.25409 7.21018 4.06543 5.8916C4.87675 4.57319 6.10012 3.58368 7.74805 2.90527L7.75 2.9043C7.77002 2.89311 7.78843 2.87843 7.80371 2.86133L7.80566 2.8623L7.80859 2.85156C8.31544 1.15661 9.70051 0.0234375 11.2598 0.0234375Z" fill="white" stroke="#232321" stroke-width="0.046875"/>
</svg>
